<?xml version="1.0" encoding="UTF-8"?>
<svg width="138px" height="151px" viewBox="0 0 138 151" version="1.1" xmlns="http://www.w3.org/2000/svg" xmlns:xlink="http://www.w3.org/1999/xlink">
    <!-- Generator: Sketch 57.1 (83088) - https://sketch.com -->
    <title>logo</title>
    <desc>Created with Sketch.</desc>
    <defs>
        <linearGradient x1="50%" y1="-92.9504647%" x2="50%" y2="100%" id="linearGradient-1">
            <stop stop-color="#FFFFFF" offset="0%"></stop>
            <stop stop-color="#EB5800" offset="100%"></stop>
        </linearGradient>
    </defs>
    <g id="logo" stroke="none" stroke-width="1" fill="none" fill-rule="evenodd">
        <g id="Group">
            <rect id="Combined-Shape-Copy-2" fill="url(#linearGradient-1)" opacity="0.312011719" x="0" y="13.519999" width="137.36319" height="137.36319" rx="37.8559972"></rect>
            <rect id="Combined-Shape-Copy-2" fill="url(#linearGradient-1)" opacity="0.312011719" x="0" y="7.03039948" width="137.36319" height="137.36319" rx="37.8559972"></rect>
            <rect id="Combined-Shape-Copy" fill="url(#linearGradient-1)" x="0" y="0" width="137.36319" height="137.36319" rx="37.8559972"></rect>
            <path d="M102.875976,105.702966 L79.8234942,105.702966 L65.8800501,83.1084796 L61.3000867,83.1084796 L61.3000867,105.702966 L41.607137,105.702966 L41.607137,31.6602244 L71.7322255,31.6602244 C76.278263,31.6602244 80.2899722,32.313293 83.7673515,33.6194309 C87.2447308,34.9255689 90.0605607,36.7660351 92.2148395,39.1408312 C94.3691183,41.5156273 95.9890688,44.2805679 97.0746895,47.4356538 C98.1603102,50.5907396 98.7031209,54.1020449 98.7031209,57.9695695 C98.7031209,60.6496965 98.4232343,63.1347504 97.863461,65.4247321 C97.3036877,67.7147138 96.4809903,69.7756973 95.3953696,71.6076827 C94.3097489,73.439668 93.003611,75.0511369 91.4769565,76.4420885 C89.9503021,77.83304 88.1861678,79.0034751 86.1845544,79.9533937 L86.1336659,80.1060591 L102.875976,105.702966 Z M61.3000867,49.0640852 L61.3000867,65.9590612 L67.3049276,65.9590612 C70.5617905,65.9590612 73.1825473,65.2296599 75.1671981,63.7708565 C77.1518489,62.3120531 78.1441743,60.2256253 78.1441743,57.5115732 C78.1441743,55.102852 77.2027373,53.0927569 75.3198635,51.4812881 C73.4369897,49.8698192 70.7653444,49.0640852 67.3049276,49.0640852 L61.3000867,49.0640852 Z" id="R" fill="#FFFFFF" fill-rule="nonzero"></path>
        </g>
    </g>
</svg>